<svg xmlns="http://www.w3.org/2000/svg" viewBox="0 0 240 240" fill="none" stroke="currentColor" stroke-width="6" stroke-linecap="round" stroke-linejoin="round">
  <!-- la porte à deux battants, ses anneaux, et le papier collé en losange -->
  <path d="M14 8h212v224H14z"/>
  <path d="M120 8v22M120 206v26"/>
  <circle cx="96" cy="216" r="10"/>
  <circle cx="144" cy="216" r="10"/>
  <path d="M120 30 208 118 120 206 32 118Z" fill="var(--ocre-soft)"/>
  <!-- 福, tête en bas -->
  <g transform="rotate(180 120 118)">
    <path d="M86 80 92 88"/>
    <path d="M78 98 104 92"/>
    <path d="M90 94v64"/>
    <path d="M90 116 101 108"/>
    <path d="M114 84h46"/>
    <path d="M122 96h30v20h-30z"/>
    <path d="M114 126h44v34h-44z"/>
    <path d="M136 126v34"/>
    <path d="M114 143h44"/>
  </g>
</svg>
